<?xml version="1.0" standalone="no"?>
<!DOCTYPE svg PUBLIC "-//W3C//DTD SVG 20010904//EN"
 "http://www.w3.org/TR/2001/REC-SVG-20010904/DTD/svg10.dtd">
<svg version="1.0" xmlns="http://www.w3.org/2000/svg"
 width="420.000000pt" height="420.000000pt" viewBox="0 0 420.000000 420.000000"
 preserveAspectRatio="xMidYMid meet">
<metadata>
Created by potrace 1.11, written by Peter Selinger 2001-2013
</metadata>
<g transform="translate(0.000000,420.000000) scale(0.100000,-0.100000)"
fill="#000000" stroke="none">
<path d="M1722 2850 l0 -640 71 0 72 0 -2 627 c-1 346 -2 634 -2 641 -1 8 -22
12 -70 12 l-69 0 0 -640z"/>
<path d="M2790 3488 c-1 -2 -1 -114 -1 -249 l-1 -245 -52 51 c-131 130 -340
132 -479 5 -61 -55 -118 -161 -137 -250 -19 -95 -10 -268 19 -345 56 -149 150
-233 289 -255 123 -20 228 16 312 107 l48 53 6 -28 c14 -72 20 -108 18 -114
-1 -5 25 -8 58 -8 l60 0 0 640 0 640 -70 0 c-38 0 -70 -1 -70 -2z m-143 -503
c29 -15 73 -49 97 -77 l46 -50 -4 -147 c-4 -165 -19 -221 -82 -298 -41 -50
-126 -93 -184 -93 -200 0 -300 168 -267 447 5 34 12 65 17 68 6 4 10 13 10 22
0 20 54 87 93 115 71 51 185 56 274 13z"/>
<path d="M3219 3473 c0 -10 -1 -297 -1 -638 l-1 -620 53 -3 c62 -4 66 0 75 80
4 32 10 60 13 62 4 2 18 -10 31 -28 104 -137 315 -172 466 -78 123 77 185 229
180 442 -3 127 -6 147 -35 221 -40 100 -91 158 -176 200 -132 65 -301 31 -421
-84 l-43 -41 0 104 c-1 58 -1 171 0 253 l1 147 -71 0 c-60 0 -70 -3 -71 -17z
m524 -472 c45 -17 104 -79 128 -134 18 -42 23 -74 26 -168 5 -192 -41 -300
-152 -354 -158 -78 -342 35 -379 232 -5 23 -8 138 -7 228 1 45 5 55 43 93 98
102 235 143 341 103z"/>
<path d="M570 3136 c-78 -16 -158 -66 -207 -129 l-21 -28 -7 58 c-11 94 -9 91
-73 92 l-57 0 0 -460 0 -459 70 0 70 0 0 308 c0 169 1 318 4 330 5 30 95 123
141 147 19 10 61 20 95 22 74 5 118 -18 142 -75 22 -53 21 -37 22 -399 l1
-333 70 0 70 0 0 316 0 316 36 49 c56 77 143 129 215 129 83 0 133 -47 147
-139 3 -20 6 -179 6 -353 l1 -318 67 0 c47 0 68 4 69 13 0 6 2 149 3 317 1
322 -6 406 -43 478 -85 167 -324 168 -474 2 -25 -27 -47 -50 -50 -50 -3 0 -8
12 -12 27 -11 46 -71 110 -117 127 -59 22 -103 25 -168 12z"/>
<path d="M3772 1804 c-45 -42 -47 -101 -5 -140 21 -19 36 -24 70 -22 118 6
124 169 7 185 -36 4 -45 1 -72 -23z"/>
<path d="M3033 1458 c-69 -7 -203 -47 -228 -68 -9 -7 -8 -21 3 -59 l15 -49 42
18 c118 50 291 63 362 26 68 -35 103 -100 103 -193 l0 -38 -134 -1 c-209 -3
-276 -18 -363 -83 -71 -54 -98 -115 -98 -221 0 -72 4 -92 26 -135 30 -58 92
-109 152 -127 66 -19 183 -14 248 11 55 21 113 68 145 117 15 22 36 33 32 17
-1 -5 2 -33 7 -63 5 -30 9 -59 9 -65 1 -5 26 -11 57 -13 l55 -3 -1 333 c-1
188 -7 351 -12 375 -42 170 -186 246 -420 221z m294 -547 c-5 -85 -26 -137
-78 -195 -69 -79 -207 -113 -295 -73 -124 56 -107 267 26 319 48 19 106 25
229 25 l124 1 -6 -77z"/>
<path d="M3761 990 l0 -461 71 3 71 3 0 455 0 455 -71 3 -71 3 0 -461z"/>
<path d="M2366 698 c-53 -46 -44 -142 16 -171 91 -44 186 42 148 134 -25 58
-115 79 -164 37z"/>
</g>
</svg>
